PathFileType	4	(X/Y/Z)	C:\Users\Basilio\Documents\Thesis Gigler\squatting_fais\c3dfiles\076\SLS_back_pre5\markers_experimental.trc
DataRate	CameraRate	NumFrames	NumMarkers	Units	OrigDataRate	OrigDataStartFrame	OrigNumFrames
200.000000	200.000000	4	61	mm	200.000000	197	1578
Frame#	Time	FHD			LBHD			RBHD			C7			T10			CLAV			LSHO			LUUPA			LMUPA			LDUPA			LLEP			LMEP			LRAD			LUL			LRFIN			RSHO			RUPA1			RMUPA			RDUPA			RLEP			RMEP			RRAD			RUL			RUFIN			LASI			RASI			USACR			LSACR			RSACR			LTHI1			LTHI2			LTHI3			LTHI4			LLFC			LMFC			LTIB1			LTIB2			LTIB3			LTIB4			LLMAL			LMMAL			LHEE			LMT1			LMT2			LMT5			RTHI			RTHI2			RTHI3			RTHI4			RLFC			RMFC			RTIB1			RTIB2			RTIB3			RTIB4			RLMAL			RMMAL			RHEE			RMT1			RMT2			RMT5			
		X1	Y1	Z1	X2	Y2	Z2	X3	Y3	Z3	X4	Y4	Z4	X5	Y5	Z5	X6	Y6	Z6	X7	Y7	Z7	X8	Y8	Z8	X9	Y9	Z9	X10	Y10	Z10	X11	Y11	Z11	X12	Y12	Z12	X13	Y13	Z13	X14	Y14	Z14	X15	Y15	Z15	X16	Y16	Z16	X17	Y17	Z17	X18	Y18	Z18	X19	Y19	Z19	X20	Y20	Z20	X21	Y21	Z21	X22	Y22	Z22	X23	Y23	Z23	X24	Y24	Z24	X25	Y25	Z25	X26	Y26	Z26	X27	Y27	Z27	X28	Y28	Z28	X29	Y29	Z29	X30	Y30	Z30	X31	Y31	Z31	X32	Y32	Z32	X33	Y33	Z33	X34	Y34	Z34	X35	Y35	Z35	X36	Y36	Z36	X37	Y37	Z37	X38	Y38	Z38	X39	Y39	Z39	X40	Y40	Z40	X41	Y41	Z41	X42	Y42	Z42	X43	Y43	Z43	X44	Y44	Z44	X45	Y45	Z45	X46	Y46	Z46	X47	Y47	Z47	X48	Y48	Z48	X49	Y49	Z49	X50	Y50	Z50	X51	Y51	Z51	X52	Y52	Z52	X53	Y53	Z53	X54	Y54	Z54	X55	Y55	Z55	X56	Y56	Z56	X57	Y57	Z57	X58	Y58	Z58	X59	Y59	Z59	X60	Y60	Z60	X61	Y61	Z61	

198	0.985	-175.4165649414063	1634.154418945313	-995.1612548828127	-316.8623962402344	1565.156494140625	-1089.22265625	-300.2901611328126	1568.875122070313	-938.3279418945315	-362.5957641601563	1450.263671875	-1018.218017578125	-406.0083312988282	1132.496826171875	-1027.283813476563	-233.6760711669922	1365.348754882813	-1016.5830078125	-303.9256286621094	1401.805541992188	-1187.247680664063	-327.6513671875001	1259.724487304688	-1322.32763671875	-312.5462646484376	1214.058471679688	-1308.463745117188	-338.9617309570313	1204.440185546875	-1362.771850585938	-352.6797180175782	1156.274169921875	-1392.197509765625	-432.708953857422	1144.366088867188	-1353.109252929688	-335.9727172851563	1010.165954589844	-1201.418334960938	-293.8923645019532	974.3294677734377	-1234.548950195313	-288.9296569824219	1032.242309570313	-1182.5732421875	-310.4320373535157	1393.305053710938	-854.498962402344	-377.4859619140626	1272.366088867188	-715.5028076171876	-348.1808471679688	1232.128784179688	-709.0536499023439	-394.2456665039064	1218.468505859375	-672.1655273437501	-393.7226867675782	1149.360717773438	-646.0869750976564	-463.035369873047	1135.467163085938	-702.8848876953126	-352.8252563476563	1012.485229492188	-839.7803955078127	-302.4263000488282	1036.335693359375	-847.2964477539065	-307.8504638671876	981.1160888671877	-800.1809082031252	-247.7879028320313	941.1002197265627	-1127.060791015625	-247.662582397461	950.8831176757815	-912.349548339844	-413.0133666992189	1023.450622558594	-1019.223693847656	-420.6915893554689	993.9215087890627	-1046.68359375	-421.1513061523439	994.3007812500002	-990.1326904296877	-334.8614807128907	786.6408691406252	-1182.066650390625	-310.6242675781251	705.7194213867189	-1172.766357421875	-261.2279663085938	707.0089111328126	-1164.867553710938	-342.1080627441407	657.2882080078126	-1152.875366210938	-344.4918823242188	497.8868103027345	-1114.324584960938	-310.8460693359376	501.8697204589845	-999.3422851562502	-313.3408203125001	359.0259704589844	-1031.651000976563	-337.0273132324219	299.4719543457032	-1093.164672851563	-308.5096435546876	305.8030090332032	-1056.390625	-324.2461242675782	232.7422180175782	-1016.657531738281	-385.4541625976564	107.4547271728516	-1055.550903320313	-355.6943359375001	121.9830093383789	-977.9432373046877	-441.8543090820314	96.83185577392581	-1007.289489746094	-240.5598754882813	51.74598312377931	-993.2385864257815	-235.1495361328126	49.7670249938965	-1032.20751953125	-259.7556762695313	44.40252685546876	-1082.51806640625	-232.7954559326172	730.9665527343751	-815.5852050781252	-171.7738342285157	699.3995361328126	-811.2891845703127	-142.6827392578125	714.6364746093751	-823.2791137695315	-162.2742309570313	616.0100708007814	-818.352966308594	-147.9011993408203	572.4442138671876	-823.2756958007815	-127.8140335083008	557.8973999023439	-933.498718261719	-191.0681915283203	448.1988220214845	-842.6926269531252	-299.4771423339844	444.9536132812501	-831.5111083984377	-268.8009948730469	408.856170654297	-836.287292480469	-289.5067443847657	367.3743591308594	-873.1243896484377	-433.538787841797	312.5702514648438	-855.777526855469	-401.1573791503907	310.6162109375001	-934.9979248046877	-477.0834045410157	353.3053588867188	-901.6643676757815	-384.0572814941407	175.4293670654297	-940.6106567382815	-381.6587829589844	163.3724822998047	-894.6123046875002	-420.3673095703126	168.817626953125	-845.685485839844	
199	0.99	-175.418197631836	1634.1064453125	-995.5128173828127	-316.8455200195313	1565.005004882813	-1089.585815429688	-300.3572692871094	1568.891479492188	-938.6643676757815	-362.6451110839844	1450.269287109375	-1018.595581054688	-406.0664367675782	1132.474853515625	-1027.530639648438	-233.6904296875001	1365.358764648438	-1016.937866210938	-303.9277648925782	1401.724853515625	-1187.583374023438	-327.7622375488282	1259.663696289063	-1322.556030273438	-312.6784973144532	1213.957885742188	-1308.781494140625	-338.8933410644532	1204.26904296875	-1363.171875	-352.6356506347657	1156.135864257813	-1392.387939453125	-432.7115783691407	1144.3271484375	-1353.368041992188	-335.9390869140626	1010.126892089844	-1201.679443359375	-293.8388671875001	974.3833618164065	-1234.779541015625	-288.8147888183594	1032.161865234375	-1182.831665039063	-310.4338073730469	1393.396362304688	-854.8764648437502	-377.2695922851563	1272.580810546875	-715.7565917968751	-348.0413513183594	1232.206176757813	-709.2870483398439	-394.0403137207032	1218.641235351563	-672.3287963867189	-393.4307861328126	1149.489379882813	-646.3165893554689	-462.9515991210939	1135.711791992188	-702.9421386718751	-352.9359741210938	1012.596252441406	-839.9790649414065	-302.5004882812501	1036.437866210938	-847.5750732421877	-307.8803710937501	981.2338867187502	-800.4455566406252	-247.9373321533204	940.967468261719	-1127.201538085938	-247.7057495117188	950.9156494140627	-912.5554809570315	-413.1721801757814	1023.361145019531	-1019.53759765625	-420.7673645019532	993.8518066406252	-1046.902465820313	-421.1873168945314	994.3298339843752	-990.3645019531252	-334.8817443847657	786.6099853515627	-1182.263549804688	-310.7834777832032	705.7714233398439	-1173.0546875	-261.1623840332032	706.9215698242189	-1164.99169921875	-342.0428161621094	657.2505493164064	-1153.060913085938	-344.5746459960938	497.8632202148439	-1114.455688476563	-310.8106384277344	501.8525390625001	-999.5056152343752	-313.4801330566407	359.2321166992188	-1031.868896484375	-336.9594116210938	299.5531005859376	-1093.2666015625	-308.5186462402344	305.7718200683594	-1056.521362304688	-324.2158203125001	232.7646484375001	-1016.758911132813	-385.338348388672	107.4253234863282	-1055.585815429688	-356.0155639648438	121.968978881836	-978.0662841796877	-441.5732727050782	96.71598052978518	-1007.238891601563	-240.5595703125001	51.74116897583009	-993.238952636719	-235.1106109619141	49.7627639770508	-1032.252197265625	-259.8199462890626	44.41360092163087	-1082.520385742188	-231.9624023437501	731.3969726562501	-816.4016113281252	-170.8705749511719	700.1103515625001	-811.7165527343752	-141.9658813476563	715.2958374023439	-823.748962402344	-161.3030395507813	616.7004394531251	-818.4945068359377	-146.8195343017578	573.3952636718751	-823.5346679687502	-126.8372268676758	558.6889648437501	-933.772399902344	-191.2533874511719	449.6763000488282	-843.4074707031252	-299.5672912597657	447.6329956054689	-832.0117797851565	-269.3264160156251	411.3245849609376	-836.8982543945315	-290.3062133789063	370.4974975585938	-873.7412719726565	-435.0805969238282	317.3930358886719	-856.5293579101565	-403.0315246582032	315.1525573730469	-935.925964355469	-478.140594482422	358.7974853515626	-902.3042602539065	-387.9372558593751	179.697494506836	-942.1534423828127	-386.1290588378907	167.5673065185547	-896.3716430664065	-424.2935791015626	173.4526977539063	-847.087829589844	
200	0.995	-175.5982818603516	1634.264892578125	-995.9019165039065	-316.8550720214844	1564.958984375	-1089.967163085938	-300.4011230468751	1568.8935546875	-939.115905761719	-362.6829528808594	1450.217529296875	-1018.937866210938	-406.2053527832032	1132.4697265625	-1027.804565429688	-233.7723999023438	1365.328369140625	-1017.275024414063	-303.9373779296876	1401.68505859375	-1187.96435546875	-327.7850646972657	1259.590087890625	-1322.868530273438	-312.6185913085938	1213.866333007813	-1309.064697265625	-338.9460449218751	1204.175659179688	-1363.555908203125	-352.6445922851563	1156.012817382813	-1392.667236328125	-432.653045654297	1144.271362304688	-1353.728271484375	-335.9685974121094	1010.037963867188	-1201.92431640625	-293.7477416992188	974.3061523437502	-1235.03271484375	-288.6962585449219	1032.095458984375	-1183.015380859375	-310.4338073730469	1393.47119140625	-855.2216796875002	-377.1140441894532	1272.635375976563	-715.9768676757814	-347.8341674804688	1232.288452148438	-709.5302124023439	-393.8123474121095	1218.818237304688	-672.5340576171876	-393.2410888671876	1149.734375	-646.3438720703126	-462.798309326172	1135.863403320313	-703.0925903320314	-352.9383239746094	1012.666442871094	-840.1438598632815	-302.5771789550782	1036.50634765625	-847.7916259765627	-307.8823547363282	981.3221435546877	-800.679138183594	-247.9359130859376	940.9348754882815	-1127.489501953125	-247.7448883056641	950.9914550781252	-912.755554199219	-413.2730712890626	1023.377563476563	-1019.809387207031	-420.8187255859376	993.8771972656252	-1047.19677734375	-421.1695251464845	994.3111572265627	-990.6018066406252	-334.3644409179688	786.348083496094	-1182.333251953125	-310.8439025878907	705.8007202148439	-1173.222290039063	-261.2366027832032	706.9473266601564	-1165.205200195313	-342.2315368652344	657.2449340820314	-1153.2451171875	-344.7292480468751	497.9263305664064	-1114.580078125	-310.8060302734376	501.8899536132814	-999.6690673828127	-313.3768615722657	359.2430419921876	-1031.94482421875	-337.0364990234376	299.4176330566407	-1093.40478515625	-308.5231323242188	305.7548828125001	-1056.686157226563	-324.0006713867188	232.8755187988282	-1016.759399414063	-385.4709777832032	107.3697204589844	-1055.620239257813	-356.2488708496094	121.9103546142578	-978.2133789062502	-441.8607177734376	96.87036895751956	-1007.287658691406	-240.561752319336	51.76066970825197	-993.225280761719	-235.0863647460938	49.76940536499025	-1032.261596679688	-259.7522583007813	44.3741798400879	-1082.50244140625	-231.2511901855469	732.0018920898439	-816.6844482421877	-170.1759185791016	700.7988281250001	-812.0430297851565	-141.3355560302735	715.9928588867189	-824.1558227539065	-160.2965698242188	617.4041137695314	-818.6849365234377	-145.911376953125	574.1831054687501	-823.7946777343752	-125.9539108276367	559.6110229492189	-934.1234130859377	-191.2388305664063	451.1451110839845	-844.1241455078127	-299.6214294433594	450.2596435546876	-832.5502929687502	-269.8351745605469	413.6798095703126	-837.6962890625002	-291.5448913574219	372.9020080566407	-874.4526977539065	-436.9184875488282	321.9751892089844	-857.3760986328127	-404.787322998047	319.3868408203126	-936.7647705078127	-479.3711547851564	364.2883605957032	-903.003845214844	-391.5547180175782	184.0811462402344	-943.6111450195315	-390.0367736816407	171.6325988769532	-897.675231933594	-428.0621643066407	177.9176330566407	-848.9421386718752	
201	1	-175.5626983642578	1634.194946289063	-996.289245605469	-316.9352416992188	1564.999145507813	-1090.401245117188	-300.4588928222657	1568.86865234375	-939.4993286132815	-362.7040710449219	1450.198364257813	-1019.273071289063	-406.3352355957032	1132.447265625	-1028.067260742188	-233.7335510253907	1365.314331054688	-1017.566101074219	-303.9438781738282	1401.578491210938	-1188.257934570313	-327.7564697265626	1259.496337890625	-1323.155151367188	-312.5815429687501	1213.718505859375	-1309.3662109375	-339.0105285644532	1204.059692382813	-1363.862670898438	-352.8223571777344	1155.962036132813	-1393.035278320313	-432.6769104003907	1144.089721679688	-1353.942993164063	-336.0097961425782	1009.973876953125	-1202.161987304688	-293.8574218750001	974.282409667969	-1235.281860351563	-288.5424194335938	1032.048583984375	-1183.279296875	-310.4280700683594	1393.577880859375	-855.612976074219	-376.9556274414063	1272.814331054688	-716.2117919921876	-347.6576538085938	1232.385864257813	-709.7422485351564	-393.5690307617189	1218.925170898438	-672.7324218750001	-392.9778442382814	1149.8671875	-646.4561767578126	-462.5747985839845	1136.01025390625	-703.0286254882814	-353.0158691406251	1012.815185546875	-840.3701171875002	-302.6076965332032	1036.616088867188	-848.036315917969	-308.0394287109376	981.2974853515627	-800.9641723632815	-248.0410461425782	940.9709472656252	-1127.766235351563	-247.7374877929688	951.0769653320315	-912.9392089843752	-413.3365783691407	1023.301513671875	-1020.115539550781	-420.8703002929689	993.807556152344	-1047.481811523438	-421.2352905273439	994.2476196289065	-990.907653808594	-335.1342773437501	786.5134887695315	-1182.690795898438	-310.2980957031251	705.6466674804689	-1173.257934570313	-261.4659423828126	706.9497680664064	-1165.565673828125	-342.3216857910157	657.2927246093751	-1153.412231445313	-344.6393127441407	497.9132385253907	-1114.730712890625	-310.7383117675782	501.8861083984376	-999.812683105469	-313.4057006835938	359.2116088867188	-1032.10888671875	-337.0875244140626	299.3823852539063	-1093.552001953125	-308.5750427246094	305.7295837402344	-1056.868774414063	-323.5332641601563	232.9249267578126	-1016.443969726563	-385.3824768066407	107.2863998413086	-1055.637573242188	-356.2849426269532	121.9354934692383	-978.3194580078127	-441.8710327148439	96.90431976318362	-1007.337219238281	-240.5545654296876	51.80603790283205	-993.2324218750002	-235.0385894775391	49.74099731445314	-1032.221923828125	-259.8370361328126	44.35079193115235	-1082.518920898438	-230.6075744628907	732.4500122070314	-816.8009033203127	-169.5799102783203	701.3123779296876	-812.3468017578127	-140.7191162109375	716.6292114257814	-824.4976806640627	-159.4169464111328	617.9685668945314	-818.9604492187502	-144.9988250732422	575.0081787109376	-823.9981689453127	-124.8033142089844	560.3540649414064	-934.4666748046877	-191.3644561767578	452.6628723144532	-844.675720214844	-299.6866455078126	453.026580810547	-832.9946289062502	-270.4001159667969	416.1489868164064	-838.4443969726565	-292.6400756835938	375.8106994628907	-875.5653076171877	-438.6396789550782	326.6283569335938	-858.2937622070315	-406.322235107422	323.8497314453126	-937.5759887695315	-480.4666442871095	369.6973266601563	-903.7281494140627	-395.6473083496095	188.4707794189453	-945.1693115234377	-393.6761169433595	175.6954803466797	-899.0601806640627	-431.7833557128907	182.434326171875	-850.3715820312502	
